<?xml version="1.0" encoding="UTF-8"?>
<svg id="Layer_1" data-name="Layer 1" width="24" height="24" xmlns="http://www.w3.org/2000/svg" viewBox="0 0 37.61 22.65">
  <path d="m18.04.26c.6.25.94.75,1.23,1.29.54,1.02.84,2.11,1.04,3.24.29,1.62.36,3.25.25,4.89-.11,1.58-.45,3.11-1.07,4.57-.27.64-.51,1.3-.76,1.95-.04.12-.1.16-.23.16-.42,0-.84,0-1.26,0-.07,0-.18-.06-.21-.11-.47-1.23-.98-2.44-1.37-3.69-.47-1.51-.57-3.09-.54-4.67.03-1.61.22-3.21.69-4.76.22-.73.5-1.44.94-2.07.24-.35.54-.64.95-.79h.34Z"/>
  <path d="m15.44,21.76c-.37-.15-.5-.42-.49-.81.01-1.02,0-2.04,0-3.07,0-.08,0-.16,0-.25h1.26v1.42h3.29v-1.42h1.27v.23c0,1.01-.01,2.03,0,3.04,0,.39-.11.68-.47.85h-4.87Z"/>
  <path d="m15.52.64c-.98,1.73-1.37,3.6-1.55,5.53-.17,1.73-.14,3.45.13,5.17.19,1.22.57,2.37,1.03,3.51.2.49.38.99.59,1.51-.4.02-.77.07-1.08-.25-1.01-1.04-2.08-2.02-3.04-3.1-1.36-1.51-1.94-3.33-1.73-5.35.35-3.36,2.16-5.65,5.29-6.91.1-.04.2-.07.3-.1.02,0,.04,0,.08,0Z"/>
  <path d="m20.02,16.34c.28-.72.55-1.44.83-2.14.6-1.5.88-3.06.97-4.66.12-1.97-.02-3.93-.46-5.86-.24-1.03-.57-2.03-1.11-2.95-.01-.02-.02-.05-.04-.1.07.02.13.02.17.04,2.92,1.06,4.75,3.1,5.38,6.15.42,2.05.03,3.96-1.21,5.67-.25.35-.55.67-.85.98-.82.83-1.67,1.64-2.47,2.49-.35.37-.73.45-1.22.37Z"/>
</svg>