<?xml version="1.0" encoding="UTF-8"?>
<svg id="Layer_1" data-name="Layer 1" width="24" height="24" xmlns="http://www.w3.org/2000/svg" viewBox="0 0 37.61 22.65">
  <path d="m25.67,4.63c-.86.21-1.65.5-2.12,1.25-.67,1.08-1.27,2.21-1.92,3.31-.82,1.39-1.66,2.76-2.51,4.13-.13.21-.29.39-.45.57-.33.38-.69.7-.66,1.3.01.29-.27.59-.4.9-.05.13-.1.3-.06.42.26.66.56,1.31.83,1.97.08.2.19.25.39.25.39-.01.78,0,1.2,0v1.28c-.66,0-1.33.04-2-.02-.19-.02-.44-.26-.54-.47-.38-.79-.71-1.6-1.04-2.4-.09-.22-.19-.32-.45-.35-.67-.06-1.18-.41-1.52-1-.06-.1-.17-.18-.25-.27-.06.11-.14.2-.17.32-.87,3.41-3.84,5.65-7.31,5.48C3.2,21.13.3,18.29.02,14.73c-.28-3.49,2.15-6.76,5.58-7.46,2.63-.53,4.89.22,6.75,2.15.06.06.11.12.17.17,0,0,.02.01.09.05.57-.82,1.48-.56,2.34-.61-.7-1.83-1.38-3.62-2.08-5.47.39-.15.77-.3,1.2-.47.56,1.45,1.1,2.87,1.66,4.33,2.93-1.9,5.8-3.85,9.25-4.77-.12-.36-.24-.71-.36-1.06-.18-.56.09-.93.67-.94.28,0,.57,0,.85,0,.04,0,.08.02.22.05-.07.42-.14.84-.2,1.27-.01.07,0,.16.03.23.61,1.75,1.23,3.5,1.84,5.26.48-.1.95-.22,1.42-.28,3.93-.5,7.43,2.14,8.06,6.09.6,3.73-1.99,7.36-5.76,8.1-3.36.66-6.74-1.18-8.04-4.38-1.29-3.19-.14-6.85,2.76-8.71.32-.2.36-.37.24-.7-.36-.96-.69-1.94-1.05-2.94Zm2.07,5.92c-1.94,1.3-2.48,4.06-1.22,6.06,1.31,2.08,4,2.74,6.12,1.5,2.11-1.23,2.86-3.92,1.69-6.07-1.27-2.34-4-2.75-5.41-2.07.41,1.17.81,2.35,1.24,3.52.04.12.21.23.34.28.43.17.88.3,1.35.46-.14.43-.27.81-.41,1.22-.58-.19-1.09-.38-1.62-.53-.45-.12-.69-.38-.84-.82-.39-1.18-.82-2.35-1.24-3.56Zm-16.37,4.95c-.15,0-.29,0-.44,0-1.24,0-2.47,0-3.71,0-.35,0-.61-.11-.73-.45-.11-.33.04-.57.29-.77.54-.42,1.07-.85,1.61-1.28.71-.57,1.42-1.14,2.13-1.71-1.22-1.57-3.58-2.05-5.44-1.12-1.94.96-2.91,3.17-2.33,5.27.57,2.05,2.56,3.44,4.7,3.28,1.85-.14,3.75-1.69,3.92-3.22Zm4.79-6.78c.68,1.04.67,2.19.63,3.33,0,.08,0,.16,0,.24-.07.51.04.92.67,1.05.16-.2.39-.42.54-.68,1.54-2.56,3.06-5.13,4.59-7.7-2.26,1.02-4.36,2.27-6.43,3.75Zm-2.86,2.03c.6,1.06.88,2.22.92,3.48.24-.31.39-.68.66-.8.7-.31.65-.87.62-1.45-.02-.29,0-.59,0-.88,0-.25,0-.49,0-.8-.78.17-1.58-.28-2.2.46Zm-4.33,3.43h2.71c-.13-.61-.25-1.19-.4-1.85-.82.65-1.53,1.22-2.32,1.85Z"/>
  <path d="m10.37.65c1.72,0,3.41,0,5.11,0,.37,0,.64.28.67.63.03.36-.21.68-.6.74-1.13.17-2.26.36-3.39.48-1.16.13-1.89-.64-1.79-1.85Z"/>
  <path d="m29.71,1.27c0,.7-.56,1.29-1.26,1.31-.7.01-1.3-.56-1.32-1.26C27.11.6,27.7,0,28.42,0c.7,0,1.29.57,1.3,1.27Z"/>
  <path d="m16.17,8.72c2.07-1.47,4.17-2.73,6.43-3.75-1.53,2.57-3.05,5.14-4.59,7.7-.16.26-.38.48-.54.68-.63-.13-.74-.54-.67-1.05.01-.08,0-.16,0-.24.04-1.15.06-2.29-.63-3.33Z" style="fill: #fff;"/>
  <path d="m13.31,10.75c.62-.73,1.42-.29,2.2-.46,0,.31,0,.55,0,.8,0,.29-.01.59,0,.88.03.59.08,1.14-.62,1.45-.26.12-.41.49-.66.8-.04-1.26-.32-2.42-.92-3.48Z" style="fill: #fff;"/>
</svg>