<?xml version="1.0" encoding="UTF-8"?>
<svg id="Layer_1" data-name="Layer 1" width="24" height="24" xmlns="http://www.w3.org/2000/svg" viewBox="0 0 21.87 21.57">
  <path d="m4.05,21.5c-.42,0-.81-.1-1.16-.3-.77-.45-1.21-1.36-1.21-2.49V4.61C1.68,2.07,3.75,0,6.29,0h9.65c2.54,0,4.61,2.07,4.61,4.61v14.09c0,1.13-.44,2.04-1.21,2.49-.77.45-1.78.4-2.77-.15l-4.88-2.71c-.29-.16-.86-.16-1.15,0l-4.88,2.71c-.55.3-1.1.46-1.61.46ZM6.29,1.5c-1.71,0-3.11,1.4-3.11,3.11v14.09c0,.59.17,1.03.47,1.2s.77.12,1.28-.17l4.88-2.71c.74-.41,1.86-.41,2.6,0l4.88,2.71c.51.29.98.35,1.28.17.3-.18.47-.62.47-1.2V4.61c0-1.71-1.4-3.11-3.11-3.11H6.29Z" style="fill: #010101;"/>
</svg>