<?xml version="1.0" encoding="UTF-8"?>
<svg id="Layer_1" data-name="Layer 1" width="24" height="24" xmlns="http://www.w3.org/2000/svg" viewBox="0 0 37.61 22.65">
  <path d="m11.4.26c.17.07.36.13.51.23.41.27.61.66.61,1.15,0,.94,0,1.87,0,2.81,0,.06-.05.17-.1.18-.95.28-1.8.75-2.57,1.42-.01-.08-.02-.13-.02-.18,0-1.4,0-2.79,0-4.19,0-.72.36-1.19,1.06-1.39.02,0,.03-.02.05-.03h.46Z"/>
  <path d="m18.75,5.29c1.58,0,3.16-.02,4.74,0,2.56.04,4.81,1.84,5.44,4.33.77,3.06-1.37,6.3-4.49,6.8-1.58.25-3.03-.08-4.33-1.02-.66-.48-1.37-.61-2.13-.28-.16.07-.31.18-.46.29-3.4,2.5-8.25.49-8.89-3.69-.47-3.09,1.73-6,4.85-6.39.28-.03.57-.05.86-.05,1.47,0,2.94,0,4.41,0,0,0,0,0,0,0Zm.01,1.8s0,0,0,0c-1.59,0-3.18-.03-4.76,0-2.29.06-4.01,2.28-3.55,4.52.57,2.77,3.76,4.01,6.02,2.31,1.43-1.08,3.33-1.03,4.7,0,.84.63,1.8.87,2.85.73,2.5-.32,4.02-3.11,2.89-5.36-.75-1.5-2.03-2.2-3.69-2.22-1.48-.01-2.97,0-4.45,0Z"/>
  <path d="m9.86,15.74c.57.49,1.17.91,1.85,1.16.44.17.91.27,1.36.4.1.03.2.08.27.14.47.45,1.08.61,1.67.79.04.01.1-.02.14-.06.31-.3.67-.43,1.1-.43.64,0,1.27,0,1.91,0,.86,0,1.45.59,1.46,1.45,0,.45.02.9-.03,1.34-.07.67-.65,1.19-1.33,1.2-.72.01-1.44.01-2.16,0-.43,0-.77-.21-1.05-.54-.07-.08-.17-.16-.28-.2-.67-.25-1.39-.42-2.02-.74-1.76-.9-2.72-2.36-2.91-4.34,0-.04,0-.08,0-.13,0-.01,0-.02.02-.07Z"/>
  <path d="m18.76,7.98c1.55,0,3.09,0,4.64,0,1.28,0,2.44.85,2.84,2.03.58,1.69-.61,3.56-2.39,3.77-.8.09-1.51-.1-2.15-.57-1.01-.74-2.14-1.07-3.39-.95-.86.09-1.63.41-2.32.93-1.08.8-2.44.82-3.5.06-1.02-.74-1.45-2.05-1.07-3.24.38-1.19,1.49-2.02,2.75-2.03,1.53,0,3.06,0,4.6,0h0Z"/>
</svg>