<?xml version="1.0" encoding="UTF-8"?>
<svg id="Layer_1" data-name="Layer 1" width="24" height="24" xmlns="http://www.w3.org/2000/svg" viewBox="0 0 37.61 22.65">
  <path d="m24.88,21.76c-.3-.11-.39-.33-.39-.64,0-4.12,0-8.24,0-12.37,0-.08,0-.17,0-.28-.06.03-.11.05-.16.07-.36.22-.73.43-1.09.67-.35.24-.71.21-1.04.01-.35-.21-.67-.46-.99-.7-.37-.26-.73-.53-1.12-.81-.02.07-.05.13-.06.18-.31,1.3-.63,2.59-.95,3.89-.03.13,0,.2.08.29.8.79,1.59,1.6,2.4,2.38.4.38.52.82.44,1.33-.15.91-.33,1.82-.5,2.72-.13.67-.25,1.35-.41,2.01-.07.29-.2.58-.36.84-.22.34-.71.3-.88-.08-.09-.2-.14-.43-.13-.65.04-.81.11-1.62.18-2.43.05-.59.13-1.17.18-1.75,0-.08-.06-.2-.12-.25-1.03-.87-2.04-1.77-3.1-2.61-1.03-.82-1.29-1.83-.94-3.06.46-1.61.9-3.23,1.35-4.84.05-.19.13-.39.24-.55.14-.21.36-.27.61-.2.63.18,1.27.34,1.89.53.17.05.33.15.48.25.78.56,1.56,1.13,2.33,1.71.1.08.18.09.3.03.4-.2.8-.39,1.21-.57.12-.05.16-.13.16-.26,0-.34,0-.69,0-1.03,0-.32.18-.53.47-.53.28,0,.46.2.47.53,0,.13,0,.25,0,.38,0,.12,0,.24,0,.38.12-.02.23-.05.33-.07.27-.04.47.05.6.28.13.22.07.42-.09.58-.21.21-.44.41-.68.59-.12.09-.17.19-.17.34,0,4.35,0,8.71,0,13.06,0,.3-.1.51-.39.62h-.17Z"/>
  <path d="m20.23.26c.38.09.74.22,1.05.48.6.51.82,1.33.57,2.12-.23.71-.9,1.25-1.66,1.31-1,.08-1.84-.51-2.1-1.48-.23-.89.24-1.85,1.11-2.25.19-.08.4-.12.6-.18.14,0,.28,0,.42,0Z"/>
  <path d="m13.52,10.8c-.55-.1-1.21-.28-1.75-.77-.32-.3-.4-.68-.32-1.09.13-.71.44-1.34.84-1.92.4-.57.83-1.12,1.29-1.65.45-.53,1.05-.82,1.74-.92.06,0,.11-.01.17-.02.7-.03,1.04.36.85,1.03-.28.97-.6,1.93-.91,2.9-.17.53-.33,1.07-.51,1.6-.2.59-.63.88-1.39.85Z"/>
  <path d="m15.54,13.68c.44.76,1.12,1.24,1.79,1.73.13.1.15.17.11.32-.17.7-.47,1.34-.88,1.93-.63.93-1.22,1.89-1.86,2.81-.19.27-.46.48-.71.7-.07.06-.17.1-.26.13-.38.12-.65-.08-.57-.47.05-.29.15-.57.26-.83.47-1.06.94-2.12,1.43-3.17.27-.57.4-1.15.47-1.77.05-.42.12-.84.18-1.27,0-.04.02-.08.04-.13Z"/>
</svg>