<?xml version="1.0" encoding="UTF-8"?>
<svg id="Layer_1" data-name="Layer 1" width="24" height="24" xmlns="http://www.w3.org/2000/svg" viewBox="0 0 37.61 22.65">
  <path d="m26.01,22.65h-.29c-.15-.12-.33-.21-.46-.35-.64-.63-1.27-1.27-1.9-1.9-1.09-1.07-1.72-2.36-1.85-3.89,0-.08-.02-.18-.07-.23-.3-.32-.62-.62-.93-.94-.38.33-.75.65-1.12.96-1.58,1.28-3.31,2.34-5.15,3.21-1.53.72-3.11,1.31-4.76,1.71-.53.13-.94-.28-.81-.81.14-.55.29-1.09.47-1.63.94-2.87,2.3-5.51,4.15-7.9.4-.51.83-1,1.26-1.52-.28-.27-.55-.56-.85-.83-.08-.08-.21-.14-.32-.15-1.42-.12-2.65-.66-3.67-1.65-.72-.69-1.41-1.4-2.11-2.1-.13-.14-.23-.31-.35-.46,0-.1,0-.2,0-.29.09-.14.17-.29.28-.41.68-.69,1.36-1.37,2.05-2.05.37-.37.72-.37,1.09,0,.64.64,1.28,1.29,1.93,1.93,1.11,1.08,1.76,2.38,1.88,3.94,0,.07.01.17.06.22.31.32.63.63.94.94.39-.33.75-.66,1.13-.97,1.58-1.29,3.32-2.35,5.17-3.22,1.48-.7,3-1.26,4.58-1.67.06-.02.12-.03.18-.04.5-.1.93.31.78.79-.33,1.11-.65,2.23-1.08,3.3-1.11,2.83-2.66,5.4-4.72,7.65-.03.03-.06.07-.1.12.29.29.56.57.85.83.09.08.22.15.34.16,1.4.12,2.61.65,3.62,1.61.75.71,1.47,1.46,2.2,2.19.39.39.39.73,0,1.12-.66.66-1.31,1.32-1.98,1.97-.14.13-.31.23-.47.34Zm-8.11-9.88c-.63.51-1.25,1.04-2.09,1.31.28-.84.81-1.46,1.3-2.07-.31-.31-.61-.61-.92-.92-.53.6-1.04,1.25-1.39,2-.17.35-.29.71-.31,1.1-.02.77.5,1.29,1.26,1.2.37-.04.74-.16,1.08-.31.75-.34,1.39-.84,1.99-1.39-.31-.31-.61-.61-.92-.92Zm2.26-3.04c-.27.85-.81,1.46-1.3,2.08.31.32.61.62.92.92.52-.57,1-1.19,1.34-1.9.14-.3.26-.62.33-.94.15-.71-.17-1.31-.79-1.43-.3-.06-.65-.03-.95.05-1.01.29-1.8.94-2.56,1.6.31.31.61.61.93.93.61-.5,1.23-1.03,2.08-1.3Z"/>
</svg>