<?xml version="1.0" encoding="UTF-8"?>
<svg id="Layer_1" data-name="Layer 1" width="24" height="24" xmlns="http://www.w3.org/2000/svg" viewBox="0 0 21.87 21.57">
  <path d="m11.12,21.53c-.67,0-1.35-.15-1.88-.46l-5.5-3.18c-2.24-1.51-2.38-1.74-2.38-4.11v-5.77c0-2.37.13-2.6,2.33-4.09L9.24.72c1.05-.61,2.7-.61,3.75,0l5.5,3.18c2.24,1.51,2.38,1.74,2.38,4.11v5.77c0,2.37-.13,2.6-2.33,4.09l-5.54,3.2c-.53.3-1.2.46-1.87.46Zm0-19.76c-.42,0-.83.08-1.12.25l-5.5,3.18q-1.62,1.1-1.62,2.81v5.77q0,1.71,1.67,2.84l5.46,3.15c.59.34,1.66.34,2.25,0l5.5-3.18q1.62-1.1,1.62-2.81v-5.77q0-1.71-1.67-2.84l-5.46-3.15c-.29-.17-.71-.25-1.12-.25Z" style="fill: #010101;"/>
  <path d="m11.12,14.65c-2.07,0-3.75-1.68-3.75-3.75s1.68-3.75,3.75-3.75,3.75,1.68,3.75,3.75-1.68,3.75-3.75,3.75Zm0-6c-1.24,0-2.25,1.01-2.25,2.25s1.01,2.25,2.25,2.25,2.25-1.01,2.25-2.25-1.01-2.25-2.25-2.25Z" style="fill: #010101;"/>
</svg>