<?xml version="1.0" encoding="UTF-8"?>
<svg id="Layer_1" data-name="Layer 1" width="24" height="24" xmlns="http://www.w3.org/2000/svg" viewBox="0 0 24 22.88">
  <path d="m11.91,0c.5,0,.75.2.92.55,1.02,2.08,2.05,4.16,3.07,6.24.08.16.16.23.35.26,2.28.32,4.56.66,6.84.99.64.09.99.43.9.96-.03.21-.16.43-.32.58-1.66,1.64-3.33,3.26-5,4.89-.12.12-.17.23-.14.41.41,2.32.8,4.64,1.19,6.96.06.35-.04.65-.32.86-.3.22-.62.22-.94.04-2.07-1.09-4.14-2.17-6.2-3.27-.19-.1-.32-.09-.51,0-2.04,1.08-4.09,2.15-6.13,3.23-.3.16-.59.22-.9.05-.33-.17-.5-.51-.43-.88.29-1.74.59-3.48.89-5.22.11-.62.22-1.25.31-1.87.01-.09-.06-.23-.13-.3-1.55-1.52-3.11-3.04-4.66-4.55-.14-.14-.28-.27-.41-.41-.25-.24-.33-.54-.23-.87.1-.33.34-.53.68-.58,1.3-.19,2.61-.38,3.91-.57,1.03-.15,2.07-.31,3.11-.45.19-.03.29-.1.37-.27,1.02-2.08,2.05-4.16,3.07-6.24.17-.35.43-.55.72-.55Z"/>
</svg>